<mxfile host="app.diagrams.net" modified="2023-12-08T08:22:07.037Z" agent="Mozilla/5.0 (Windows NT 10.0; Win64; x64) AppleWebKit/537.36 (KHTML, like Gecko) Chrome/119.0.0.0 Safari/537.36" etag="Y43w8zHuE_rUAhS6iX4u" version="22.1.7" type="google" pages="4">
  <diagram name="Topologi" id="sNnJKH6JlJ6PGVhHjfoo">
    <mxGraphModel grid="1" page="1" gridSize="10" guides="1" tooltips="1" connect="1" arrows="1" fold="1" pageScale="1" pageWidth="850" pageHeight="1100" math="0" shadow="0">
      <root>
        <mxCell id="0" />
        <mxCell id="1" parent="0" />
        <mxCell id="dLufG7Xn6QBuQdd4mcXu-7" style="edgeStyle=orthogonalEdgeStyle;rounded=0;orthogonalLoop=1;jettySize=auto;html=1;" edge="1" parent="1" source="dLufG7Xn6QBuQdd4mcXu-1" target="dLufG7Xn6QBuQdd4mcXu-3">
          <mxGeometry relative="1" as="geometry" />
        </mxCell>
        <mxCell id="dLufG7Xn6QBuQdd4mcXu-1" value="" style="fontColor=#0066CC;verticalAlign=top;verticalLabelPosition=bottom;labelPosition=center;align=center;html=1;outlineConnect=0;fillColor=#CCCCCC;strokeColor=#6881B3;gradientColor=none;gradientDirection=north;strokeWidth=2;shape=mxgraph.networks.pc;" vertex="1" parent="1">
          <mxGeometry x="130" y="290" width="100" height="70" as="geometry" />
        </mxCell>
        <mxCell id="dLufG7Xn6QBuQdd4mcXu-2" value="" style="fontColor=#0066CC;verticalAlign=top;verticalLabelPosition=bottom;labelPosition=center;align=center;html=1;outlineConnect=0;fillColor=#CCCCCC;strokeColor=#6881B3;gradientColor=none;gradientDirection=north;strokeWidth=2;shape=mxgraph.networks.pc;" vertex="1" parent="1">
          <mxGeometry x="540" y="230" width="100" height="70" as="geometry" />
        </mxCell>
        <mxCell id="dLufG7Xn6QBuQdd4mcXu-8" style="edgeStyle=orthogonalEdgeStyle;rounded=0;orthogonalLoop=1;jettySize=auto;html=1;" edge="1" parent="1" source="dLufG7Xn6QBuQdd4mcXu-3" target="dLufG7Xn6QBuQdd4mcXu-2">
          <mxGeometry relative="1" as="geometry" />
        </mxCell>
        <mxCell id="VT6LB2CpyfR77jwjkUHX-3" style="edgeStyle=orthogonalEdgeStyle;rounded=0;orthogonalLoop=1;jettySize=auto;html=1;" edge="1" parent="1" source="dLufG7Xn6QBuQdd4mcXu-3" target="VT6LB2CpyfR77jwjkUHX-1">
          <mxGeometry relative="1" as="geometry" />
        </mxCell>
        <mxCell id="dLufG7Xn6QBuQdd4mcXu-3" value="" style="html=1;outlineConnect=0;fillColor=#CCCCCC;strokeColor=#6881B3;gradientColor=none;gradientDirection=north;strokeWidth=2;shape=mxgraph.networks.cloud;fontColor=#ffffff;" vertex="1" parent="1">
          <mxGeometry x="335" y="300" width="90" height="50" as="geometry" />
        </mxCell>
        <mxCell id="dLufG7Xn6QBuQdd4mcXu-9" value="Penyedia" style="text;html=1;strokeColor=none;fillColor=none;align=center;verticalAlign=middle;whiteSpace=wrap;rounded=0;" vertex="1" parent="1">
          <mxGeometry x="150" y="370" width="60" height="30" as="geometry" />
        </mxCell>
        <mxCell id="dLufG7Xn6QBuQdd4mcXu-10" value="Cloud" style="text;html=1;strokeColor=none;fillColor=none;align=center;verticalAlign=middle;whiteSpace=wrap;rounded=0;" vertex="1" parent="1">
          <mxGeometry x="350" y="360" width="60" height="30" as="geometry" />
        </mxCell>
        <mxCell id="dLufG7Xn6QBuQdd4mcXu-11" value="Pelanggan" style="text;html=1;strokeColor=none;fillColor=none;align=center;verticalAlign=middle;whiteSpace=wrap;rounded=0;" vertex="1" parent="1">
          <mxGeometry x="560" y="310" width="60" height="30" as="geometry" />
        </mxCell>
        <mxCell id="VT6LB2CpyfR77jwjkUHX-1" value="" style="fontColor=#0066CC;verticalAlign=top;verticalLabelPosition=bottom;labelPosition=center;align=center;html=1;outlineConnect=0;fillColor=#CCCCCC;strokeColor=#6881B3;gradientColor=none;gradientDirection=north;strokeWidth=2;shape=mxgraph.networks.pc;" vertex="1" parent="1">
          <mxGeometry x="540" y="350" width="100" height="70" as="geometry" />
        </mxCell>
        <mxCell id="VT6LB2CpyfR77jwjkUHX-2" value="Pelanggan" style="text;html=1;strokeColor=none;fillColor=none;align=center;verticalAlign=middle;whiteSpace=wrap;rounded=0;" vertex="1" parent="1">
          <mxGeometry x="560" y="430" width="60" height="30" as="geometry" />
        </mxCell>
      </root>
    </mxGraphModel>
  </diagram>
  <diagram id="BnHX939VlWABlarUkfC8" name="Arsitektur">
    <mxGraphModel grid="1" page="1" gridSize="10" guides="1" tooltips="1" connect="1" arrows="1" fold="1" pageScale="1" pageWidth="850" pageHeight="1100" math="0" shadow="0">
      <root>
        <mxCell id="0" />
        <mxCell id="1" parent="0" />
        <mxCell id="Qpf8V9iw-Fjcdn3u0E0M-5" value="" style="html=1;outlineConnect=0;fillColor=#CCCCCC;strokeColor=#6881B3;gradientColor=none;gradientDirection=north;strokeWidth=2;shape=mxgraph.networks.cloud;fontColor=#ffffff;" vertex="1" parent="1">
          <mxGeometry x="370" y="180" width="90" height="50" as="geometry" />
        </mxCell>
        <mxCell id="Qpf8V9iw-Fjcdn3u0E0M-7" value="Cloud" style="text;html=1;strokeColor=none;fillColor=none;align=center;verticalAlign=middle;whiteSpace=wrap;rounded=0;" vertex="1" parent="1">
          <mxGeometry x="385" y="230" width="60" height="30" as="geometry" />
        </mxCell>
        <mxCell id="Qpf8V9iw-Fjcdn3u0E0M-11" value="Penyedia" style="swimlane;whiteSpace=wrap;html=1;" vertex="1" parent="1">
          <mxGeometry x="40" y="40" width="280" height="540" as="geometry" />
        </mxCell>
        <mxCell id="Qpf8V9iw-Fjcdn3u0E0M-12" value="Modul Penjadwalan" style="rounded=1;whiteSpace=wrap;html=1;" vertex="1" parent="Qpf8V9iw-Fjcdn3u0E0M-11">
          <mxGeometry x="30" y="50" width="120" height="40" as="geometry" />
        </mxCell>
        <mxCell id="Qpf8V9iw-Fjcdn3u0E0M-17" value="Modul Jadwal" style="rounded=1;whiteSpace=wrap;html=1;" vertex="1" parent="Qpf8V9iw-Fjcdn3u0E0M-11">
          <mxGeometry x="30" y="110" width="120" height="40" as="geometry" />
        </mxCell>
        <mxCell id="Qpf8V9iw-Fjcdn3u0E0M-18" value="Modul Penjadwalan" style="rounded=1;whiteSpace=wrap;html=1;" vertex="1" parent="Qpf8V9iw-Fjcdn3u0E0M-11">
          <mxGeometry x="30" y="170" width="120" height="40" as="geometry" />
        </mxCell>
        <mxCell id="Qpf8V9iw-Fjcdn3u0E0M-19" value="Pelanggan" style="swimlane;whiteSpace=wrap;html=1;" vertex="1" parent="1">
          <mxGeometry x="535" y="40" width="280" height="540" as="geometry" />
        </mxCell>
        <mxCell id="Qpf8V9iw-Fjcdn3u0E0M-20" value="Modul Penjadwalan" style="rounded=1;whiteSpace=wrap;html=1;" vertex="1" parent="Qpf8V9iw-Fjcdn3u0E0M-19">
          <mxGeometry x="30" y="50" width="120" height="40" as="geometry" />
        </mxCell>
        <mxCell id="Qpf8V9iw-Fjcdn3u0E0M-21" value="Modul Jadwal" style="rounded=1;whiteSpace=wrap;html=1;" vertex="1" parent="Qpf8V9iw-Fjcdn3u0E0M-19">
          <mxGeometry x="30" y="110" width="120" height="40" as="geometry" />
        </mxCell>
        <mxCell id="Qpf8V9iw-Fjcdn3u0E0M-22" value="Modul Penjadwalan" style="rounded=1;whiteSpace=wrap;html=1;" vertex="1" parent="Qpf8V9iw-Fjcdn3u0E0M-19">
          <mxGeometry x="30" y="170" width="120" height="40" as="geometry" />
        </mxCell>
      </root>
    </mxGraphModel>
  </diagram>
  <diagram id="NRqZpsJzyAaYNsRKF9XY" name="Flowchart Laundry">
    <mxGraphModel grid="1" page="1" gridSize="10" guides="1" tooltips="1" connect="1" arrows="1" fold="1" pageScale="1" pageWidth="850" pageHeight="1100" math="0" shadow="0">
      <root>
        <mxCell id="0" />
        <mxCell id="1" parent="0" />
        <mxCell id="BGzgkaQS4cXJI9z4b2v5-1" value="&lt;b&gt;&lt;font style=&quot;font-size: 14px;&quot;&gt;Mulai&lt;/font&gt;&lt;/b&gt;" style="ellipse;whiteSpace=wrap;html=1;" vertex="1" parent="1">
          <mxGeometry x="20" y="133" width="70" height="40" as="geometry" />
        </mxCell>
        <mxCell id="BGzgkaQS4cXJI9z4b2v5-53" style="edgeStyle=orthogonalEdgeStyle;rounded=0;orthogonalLoop=1;jettySize=auto;html=1;" edge="1" parent="1" source="BGzgkaQS4cXJI9z4b2v5-2" target="BGzgkaQS4cXJI9z4b2v5-11">
          <mxGeometry relative="1" as="geometry" />
        </mxCell>
        <mxCell id="BGzgkaQS4cXJI9z4b2v5-2" value="Soang" style="shape=parallelogram;perimeter=parallelogramPerimeter;whiteSpace=wrap;html=1;fixedSize=1;" vertex="1" parent="1">
          <mxGeometry x="207" y="175" width="90" height="30" as="geometry" />
        </mxCell>
        <mxCell id="BGzgkaQS4cXJI9z4b2v5-56" style="edgeStyle=orthogonalEdgeStyle;rounded=0;orthogonalLoop=1;jettySize=auto;html=1;entryX=0;entryY=0.5;entryDx=0;entryDy=0;exitX=0.5;exitY=1;exitDx=0;exitDy=0;" edge="1" parent="1" source="BGzgkaQS4cXJI9z4b2v5-3" target="BGzgkaQS4cXJI9z4b2v5-2">
          <mxGeometry relative="1" as="geometry">
            <Array as="points">
              <mxPoint x="190" y="190" />
              <mxPoint x="190" y="190" />
            </Array>
          </mxGeometry>
        </mxCell>
        <mxCell id="BGzgkaQS4cXJI9z4b2v5-58" style="edgeStyle=orthogonalEdgeStyle;rounded=0;orthogonalLoop=1;jettySize=auto;html=1;entryX=0;entryY=0.5;entryDx=0;entryDy=0;" edge="1" parent="1" source="BGzgkaQS4cXJI9z4b2v5-3" target="BGzgkaQS4cXJI9z4b2v5-4">
          <mxGeometry relative="1" as="geometry">
            <Array as="points">
              <mxPoint x="210" y="120" />
              <mxPoint x="210" y="121" />
            </Array>
          </mxGeometry>
        </mxCell>
        <mxCell id="BGzgkaQS4cXJI9z4b2v5-3" value="Pilih Cabang" style="rhombus;whiteSpace=wrap;html=1;" vertex="1" parent="1">
          <mxGeometry x="120" y="118" width="70" height="72" as="geometry" />
        </mxCell>
        <mxCell id="BGzgkaQS4cXJI9z4b2v5-52" style="edgeStyle=orthogonalEdgeStyle;rounded=0;orthogonalLoop=1;jettySize=auto;html=1;entryX=0;entryY=0.5;entryDx=0;entryDy=0;" edge="1" parent="1" source="BGzgkaQS4cXJI9z4b2v5-4" target="BGzgkaQS4cXJI9z4b2v5-11">
          <mxGeometry relative="1" as="geometry">
            <Array as="points">
              <mxPoint x="308" y="118" />
              <mxPoint x="308" y="190" />
            </Array>
          </mxGeometry>
        </mxCell>
        <mxCell id="BGzgkaQS4cXJI9z4b2v5-4" value="Bojong" style="shape=parallelogram;perimeter=parallelogramPerimeter;whiteSpace=wrap;html=1;fixedSize=1;" vertex="1" parent="1">
          <mxGeometry x="207" y="106" width="90" height="30" as="geometry" />
        </mxCell>
        <mxCell id="BGzgkaQS4cXJI9z4b2v5-7" style="edgeStyle=orthogonalEdgeStyle;rounded=0;orthogonalLoop=1;jettySize=auto;html=1;entryX=0;entryY=0.5;entryDx=0;entryDy=0;" edge="1" parent="1" source="BGzgkaQS4cXJI9z4b2v5-1" target="BGzgkaQS4cXJI9z4b2v5-3">
          <mxGeometry relative="1" as="geometry" />
        </mxCell>
        <mxCell id="BGzgkaQS4cXJI9z4b2v5-24" style="edgeStyle=orthogonalEdgeStyle;rounded=0;orthogonalLoop=1;jettySize=auto;html=1;" edge="1" parent="1" source="BGzgkaQS4cXJI9z4b2v5-9" target="BGzgkaQS4cXJI9z4b2v5-23">
          <mxGeometry relative="1" as="geometry" />
        </mxCell>
        <mxCell id="BGzgkaQS4cXJI9z4b2v5-9" value="Input Id" style="shape=parallelogram;perimeter=parallelogramPerimeter;whiteSpace=wrap;html=1;fixedSize=1;" vertex="1" parent="1">
          <mxGeometry x="415.5" y="260" width="75" height="25" as="geometry" />
        </mxCell>
        <mxCell id="BGzgkaQS4cXJI9z4b2v5-42" style="edgeStyle=orthogonalEdgeStyle;rounded=0;orthogonalLoop=1;jettySize=auto;html=1;" edge="1" parent="1" source="BGzgkaQS4cXJI9z4b2v5-10" target="BGzgkaQS4cXJI9z4b2v5-36">
          <mxGeometry relative="1" as="geometry">
            <mxPoint x="621.999955410193" y="160.0344827586207" as="sourcePoint" />
            <mxPoint x="732" y="187.5" as="targetPoint" />
            <Array as="points">
              <mxPoint x="682" y="161" />
              <mxPoint x="682" y="188" />
            </Array>
          </mxGeometry>
        </mxCell>
        <mxCell id="BGzgkaQS4cXJI9z4b2v5-10" value="Cloud" style="ellipse;shape=cloud;whiteSpace=wrap;html=1;" vertex="1" parent="1">
          <mxGeometry x="540" y="140" width="60" height="40" as="geometry" />
        </mxCell>
        <mxCell id="BGzgkaQS4cXJI9z4b2v5-18" style="edgeStyle=orthogonalEdgeStyle;rounded=0;orthogonalLoop=1;jettySize=auto;html=1;entryX=0;entryY=0.5;entryDx=0;entryDy=0;" edge="1" parent="1" source="BGzgkaQS4cXJI9z4b2v5-11" target="BGzgkaQS4cXJI9z4b2v5-14">
          <mxGeometry relative="1" as="geometry">
            <Array as="points">
              <mxPoint x="398" y="160" />
              <mxPoint x="398" y="160" />
            </Array>
          </mxGeometry>
        </mxCell>
        <mxCell id="BGzgkaQS4cXJI9z4b2v5-19" style="edgeStyle=orthogonalEdgeStyle;rounded=0;orthogonalLoop=1;jettySize=auto;html=1;entryX=0;entryY=0.5;entryDx=0;entryDy=0;" edge="1" parent="1" source="BGzgkaQS4cXJI9z4b2v5-11" target="BGzgkaQS4cXJI9z4b2v5-15">
          <mxGeometry relative="1" as="geometry">
            <Array as="points">
              <mxPoint x="358" y="225" />
            </Array>
          </mxGeometry>
        </mxCell>
        <mxCell id="BGzgkaQS4cXJI9z4b2v5-20" style="edgeStyle=orthogonalEdgeStyle;rounded=0;orthogonalLoop=1;jettySize=auto;html=1;" edge="1" parent="1" source="BGzgkaQS4cXJI9z4b2v5-11" target="BGzgkaQS4cXJI9z4b2v5-9">
          <mxGeometry relative="1" as="geometry">
            <mxPoint x="408" y="280" as="targetPoint" />
            <Array as="points">
              <mxPoint x="358" y="270" />
            </Array>
          </mxGeometry>
        </mxCell>
        <mxCell id="BGzgkaQS4cXJI9z4b2v5-11" value="Menu" style="rhombus;whiteSpace=wrap;html=1;" vertex="1" parent="1">
          <mxGeometry x="328" y="160" width="60" height="60" as="geometry" />
        </mxCell>
        <mxCell id="BGzgkaQS4cXJI9z4b2v5-33" style="edgeStyle=orthogonalEdgeStyle;rounded=0;orthogonalLoop=1;jettySize=auto;html=1;" edge="1" parent="1" source="BGzgkaQS4cXJI9z4b2v5-14" target="BGzgkaQS4cXJI9z4b2v5-10">
          <mxGeometry relative="1" as="geometry" />
        </mxCell>
        <mxCell id="BGzgkaQS4cXJI9z4b2v5-14" value="Broadcast&amp;nbsp; Msg" style="shape=parallelogram;perimeter=parallelogramPerimeter;whiteSpace=wrap;html=1;fixedSize=1;" vertex="1" parent="1">
          <mxGeometry x="402" y="145" width="112" height="30" as="geometry" />
        </mxCell>
        <mxCell id="BGzgkaQS4cXJI9z4b2v5-35" style="edgeStyle=orthogonalEdgeStyle;rounded=0;orthogonalLoop=1;jettySize=auto;html=1;" edge="1" parent="1" source="BGzgkaQS4cXJI9z4b2v5-15">
          <mxGeometry relative="1" as="geometry">
            <mxPoint x="551" y="225" as="targetPoint" />
          </mxGeometry>
        </mxCell>
        <mxCell id="BGzgkaQS4cXJI9z4b2v5-15" value="Perbaharui Info" style="rounded=1;whiteSpace=wrap;html=1;arcSize=0;" vertex="1" parent="1">
          <mxGeometry x="408" y="210" width="90" height="30" as="geometry" />
        </mxCell>
        <mxCell id="BGzgkaQS4cXJI9z4b2v5-44" style="edgeStyle=orthogonalEdgeStyle;rounded=0;orthogonalLoop=1;jettySize=auto;html=1;" edge="1" parent="1" source="BGzgkaQS4cXJI9z4b2v5-23" target="BGzgkaQS4cXJI9z4b2v5-36">
          <mxGeometry relative="1" as="geometry">
            <mxPoint x="682" y="260.9212159716611" as="sourcePoint" />
            <mxPoint x="722" y="187.5" as="targetPoint" />
            <Array as="points">
              <mxPoint x="682" y="273" />
              <mxPoint x="682" y="187" />
            </Array>
          </mxGeometry>
        </mxCell>
        <mxCell id="BGzgkaQS4cXJI9z4b2v5-23" value="Cloud" style="ellipse;shape=cloud;whiteSpace=wrap;html=1;" vertex="1" parent="1">
          <mxGeometry x="540" y="252.5" width="60" height="40" as="geometry" />
        </mxCell>
        <mxCell id="BGzgkaQS4cXJI9z4b2v5-29" style="edgeStyle=orthogonalEdgeStyle;rounded=0;orthogonalLoop=1;jettySize=auto;html=1;entryX=0;entryY=0.5;entryDx=0;entryDy=0;" edge="1" parent="1" source="BGzgkaQS4cXJI9z4b2v5-26" target="BGzgkaQS4cXJI9z4b2v5-28">
          <mxGeometry relative="1" as="geometry" />
        </mxCell>
        <mxCell id="BGzgkaQS4cXJI9z4b2v5-26" value="MySQL" style="shape=cylinder3;whiteSpace=wrap;html=1;boundedLbl=1;backgroundOutline=1;size=15;" vertex="1" parent="1">
          <mxGeometry x="420" y="73.5" width="45" height="60" as="geometry" />
        </mxCell>
        <mxCell id="BGzgkaQS4cXJI9z4b2v5-41" style="edgeStyle=orthogonalEdgeStyle;rounded=0;orthogonalLoop=1;jettySize=auto;html=1;exitX=1;exitY=0.5;exitDx=0;exitDy=0;" edge="1" parent="1" source="BGzgkaQS4cXJI9z4b2v5-28" target="BGzgkaQS4cXJI9z4b2v5-36">
          <mxGeometry relative="1" as="geometry">
            <mxPoint x="672" y="117" as="sourcePoint" />
            <mxPoint x="742" y="187.5" as="targetPoint" />
            <Array as="points">
              <mxPoint x="682" y="103" />
              <mxPoint x="682" y="188" />
            </Array>
          </mxGeometry>
        </mxCell>
        <mxCell id="BGzgkaQS4cXJI9z4b2v5-28" value="Show All List" style="shape=parallelogram;perimeter=parallelogramPerimeter;whiteSpace=wrap;html=1;fixedSize=1;" vertex="1" parent="1">
          <mxGeometry x="520" y="89.5" width="100" height="27" as="geometry" />
        </mxCell>
        <mxCell id="BGzgkaQS4cXJI9z4b2v5-43" style="edgeStyle=orthogonalEdgeStyle;rounded=0;orthogonalLoop=1;jettySize=auto;html=1;exitX=0.704;exitY=0.522;exitDx=0;exitDy=0;exitPerimeter=0;" edge="1" parent="1" source="BGzgkaQS4cXJI9z4b2v5-34" target="BGzgkaQS4cXJI9z4b2v5-36">
          <mxGeometry relative="1" as="geometry">
            <mxPoint x="618" y="218.0344827586207" as="sourcePoint" />
            <mxPoint x="732" y="187.5" as="targetPoint" />
            <Array as="points">
              <mxPoint x="583" y="218" />
              <mxPoint x="682" y="218" />
              <mxPoint x="682" y="187" />
            </Array>
          </mxGeometry>
        </mxCell>
        <mxCell id="BGzgkaQS4cXJI9z4b2v5-34" value="MySQL" style="shape=cylinder3;whiteSpace=wrap;html=1;boundedLbl=1;backgroundOutline=1;size=15;" vertex="1" parent="1">
          <mxGeometry x="551" y="188" width="45" height="60" as="geometry" />
        </mxCell>
        <mxCell id="BGzgkaQS4cXJI9z4b2v5-46" style="edgeStyle=orthogonalEdgeStyle;rounded=0;orthogonalLoop=1;jettySize=auto;html=1;" edge="1" parent="1" source="BGzgkaQS4cXJI9z4b2v5-36" target="BGzgkaQS4cXJI9z4b2v5-45">
          <mxGeometry relative="1" as="geometry">
            <Array as="points">
              <mxPoint x="782" y="290" />
              <mxPoint x="782" y="290" />
            </Array>
          </mxGeometry>
        </mxCell>
        <mxCell id="BGzgkaQS4cXJI9z4b2v5-48" style="edgeStyle=orthogonalEdgeStyle;rounded=0;orthogonalLoop=1;jettySize=auto;html=1;" edge="1" parent="1" source="BGzgkaQS4cXJI9z4b2v5-36" target="BGzgkaQS4cXJI9z4b2v5-47">
          <mxGeometry relative="1" as="geometry" />
        </mxCell>
        <mxCell id="BGzgkaQS4cXJI9z4b2v5-36" value="Continue?" style="rhombus;whiteSpace=wrap;html=1;" vertex="1" parent="1">
          <mxGeometry x="747" y="155" width="70" height="65" as="geometry" />
        </mxCell>
        <mxCell id="BGzgkaQS4cXJI9z4b2v5-45" value="&lt;b&gt;&lt;font style=&quot;font-size: 15px;&quot;&gt;End&lt;/font&gt;&lt;/b&gt;" style="ellipse;whiteSpace=wrap;html=1;" vertex="1" parent="1">
          <mxGeometry x="747" y="250" width="70" height="40" as="geometry" />
        </mxCell>
        <mxCell id="BGzgkaQS4cXJI9z4b2v5-47" value="&lt;font style=&quot;font-size: 17px;&quot;&gt;&lt;b&gt;A&lt;/b&gt;&lt;/font&gt;" style="ellipse;whiteSpace=wrap;html=1;aspect=fixed;" vertex="1" parent="1">
          <mxGeometry x="762" y="83" width="40" height="40" as="geometry" />
        </mxCell>
        <mxCell id="BGzgkaQS4cXJI9z4b2v5-54" style="edgeStyle=orthogonalEdgeStyle;rounded=0;orthogonalLoop=1;jettySize=auto;html=1;entryX=0;entryY=0.5;entryDx=0;entryDy=0;" edge="1" parent="1">
          <mxGeometry relative="1" as="geometry">
            <mxPoint x="273" y="260" as="sourcePoint" />
            <mxPoint x="329" y="190" as="targetPoint" />
            <Array as="points">
              <mxPoint x="308" y="260" />
              <mxPoint x="308" y="190" />
            </Array>
          </mxGeometry>
        </mxCell>
        <mxCell id="BGzgkaQS4cXJI9z4b2v5-49" value="&lt;font style=&quot;font-size: 17px;&quot;&gt;&lt;b&gt;A&lt;/b&gt;&lt;/font&gt;" style="ellipse;whiteSpace=wrap;html=1;aspect=fixed;" vertex="1" parent="1">
          <mxGeometry x="232" y="240" width="40" height="40" as="geometry" />
        </mxCell>
        <mxCell id="BGzgkaQS4cXJI9z4b2v5-59" value="&lt;b&gt;1&lt;/b&gt;" style="text;html=1;strokeColor=none;fillColor=none;align=center;verticalAlign=middle;whiteSpace=wrap;rounded=0;" vertex="1" parent="1">
          <mxGeometry x="175" y="93" width="32" height="30" as="geometry" />
        </mxCell>
        <mxCell id="BGzgkaQS4cXJI9z4b2v5-60" value="&lt;b&gt;2&lt;/b&gt;" style="text;html=1;strokeColor=none;fillColor=none;align=center;verticalAlign=middle;whiteSpace=wrap;rounded=0;" vertex="1" parent="1">
          <mxGeometry x="175" y="158" width="32" height="30" as="geometry" />
        </mxCell>
        <mxCell id="BGzgkaQS4cXJI9z4b2v5-61" value="&lt;b&gt;1&lt;/b&gt;" style="text;html=1;strokeColor=none;fillColor=none;align=center;verticalAlign=middle;whiteSpace=wrap;rounded=0;" vertex="1" parent="1">
          <mxGeometry x="370" y="73.5" width="32" height="30" as="geometry" />
        </mxCell>
        <mxCell id="BGzgkaQS4cXJI9z4b2v5-62" value="&lt;b&gt;2&lt;/b&gt;" style="text;html=1;strokeColor=none;fillColor=none;align=center;verticalAlign=middle;whiteSpace=wrap;rounded=0;" vertex="1" parent="1">
          <mxGeometry x="370" y="130" width="32" height="30" as="geometry" />
        </mxCell>
        <mxCell id="BGzgkaQS4cXJI9z4b2v5-63" value="&lt;b&gt;3&lt;/b&gt;" style="text;html=1;strokeColor=none;fillColor=none;align=center;verticalAlign=middle;whiteSpace=wrap;rounded=0;" vertex="1" parent="1">
          <mxGeometry x="370" y="194" width="32" height="30" as="geometry" />
        </mxCell>
        <mxCell id="BGzgkaQS4cXJI9z4b2v5-64" value="&lt;b&gt;4&lt;/b&gt;" style="text;html=1;strokeColor=none;fillColor=none;align=center;verticalAlign=middle;whiteSpace=wrap;rounded=0;" vertex="1" parent="1">
          <mxGeometry x="370" y="240" width="32" height="30" as="geometry" />
        </mxCell>
        <mxCell id="BGzgkaQS4cXJI9z4b2v5-69" value="&lt;b&gt;Y&lt;/b&gt;" style="text;html=1;strokeColor=none;fillColor=none;align=center;verticalAlign=middle;whiteSpace=wrap;rounded=0;" vertex="1" parent="1">
          <mxGeometry x="785" y="130" width="32" height="30" as="geometry" />
        </mxCell>
        <mxCell id="BGzgkaQS4cXJI9z4b2v5-70" value="&lt;b&gt;N&lt;/b&gt;" style="text;html=1;strokeColor=none;fillColor=none;align=center;verticalAlign=middle;whiteSpace=wrap;rounded=0;" vertex="1" parent="1">
          <mxGeometry x="785" y="220" width="32" height="30" as="geometry" />
        </mxCell>
        <mxCell id="BGzgkaQS4cXJI9z4b2v5-72" style="edgeStyle=orthogonalEdgeStyle;rounded=0;orthogonalLoop=1;jettySize=auto;html=1;entryX=0;entryY=0.5;entryDx=0;entryDy=0;entryPerimeter=0;" edge="1" parent="1" source="BGzgkaQS4cXJI9z4b2v5-11" target="BGzgkaQS4cXJI9z4b2v5-26">
          <mxGeometry relative="1" as="geometry">
            <Array as="points">
              <mxPoint x="360" y="104" />
              <mxPoint x="420" y="104" />
            </Array>
          </mxGeometry>
        </mxCell>
      </root>
    </mxGraphModel>
  </diagram>
  <diagram id="j3p2WSpA9JjoEmzraxo9" name="Flowchart Client">
    <mxGraphModel grid="1" page="1" gridSize="10" guides="1" tooltips="1" connect="1" arrows="1" fold="1" pageScale="1" pageWidth="850" pageHeight="1100" math="0" shadow="0">
      <root>
        <mxCell id="0" />
        <mxCell id="1" parent="0" />
        <mxCell id="fVOtU-Zu3EkFVPgkVwaM-1" value="&lt;b&gt;&lt;font style=&quot;font-size: 14px;&quot;&gt;Mulai&lt;/font&gt;&lt;/b&gt;" style="ellipse;whiteSpace=wrap;html=1;" vertex="1" parent="1">
          <mxGeometry x="20" y="83" width="70" height="40" as="geometry" />
        </mxCell>
        <mxCell id="fVOtU-Zu3EkFVPgkVwaM-2" style="edgeStyle=orthogonalEdgeStyle;rounded=0;orthogonalLoop=1;jettySize=auto;html=1;" edge="1" parent="1" source="fVOtU-Zu3EkFVPgkVwaM-3" target="fVOtU-Zu3EkFVPgkVwaM-17">
          <mxGeometry relative="1" as="geometry" />
        </mxCell>
        <mxCell id="fVOtU-Zu3EkFVPgkVwaM-62" style="edgeStyle=orthogonalEdgeStyle;rounded=0;orthogonalLoop=1;jettySize=auto;html=1;" edge="1" parent="1" source="fVOtU-Zu3EkFVPgkVwaM-3" target="fVOtU-Zu3EkFVPgkVwaM-13">
          <mxGeometry relative="1" as="geometry">
            <Array as="points">
              <mxPoint x="310" y="140" />
              <mxPoint x="310" y="270" />
            </Array>
          </mxGeometry>
        </mxCell>
        <mxCell id="fVOtU-Zu3EkFVPgkVwaM-64" style="edgeStyle=orthogonalEdgeStyle;rounded=0;orthogonalLoop=1;jettySize=auto;html=1;" edge="1" parent="1" source="fVOtU-Zu3EkFVPgkVwaM-3" target="fVOtU-Zu3EkFVPgkVwaM-17">
          <mxGeometry relative="1" as="geometry" />
        </mxCell>
        <mxCell id="fVOtU-Zu3EkFVPgkVwaM-3" value="Soang" style="shape=parallelogram;perimeter=parallelogramPerimeter;whiteSpace=wrap;html=1;fixedSize=1;" vertex="1" parent="1">
          <mxGeometry x="206" y="125" width="90" height="30" as="geometry" />
        </mxCell>
        <mxCell id="fVOtU-Zu3EkFVPgkVwaM-4" style="edgeStyle=orthogonalEdgeStyle;rounded=0;orthogonalLoop=1;jettySize=auto;html=1;entryX=0;entryY=0.5;entryDx=0;entryDy=0;exitX=0.5;exitY=1;exitDx=0;exitDy=0;" edge="1" parent="1" source="fVOtU-Zu3EkFVPgkVwaM-6" target="fVOtU-Zu3EkFVPgkVwaM-3">
          <mxGeometry relative="1" as="geometry">
            <Array as="points">
              <mxPoint x="189" y="140" />
              <mxPoint x="189" y="140" />
            </Array>
          </mxGeometry>
        </mxCell>
        <mxCell id="fVOtU-Zu3EkFVPgkVwaM-5" style="edgeStyle=orthogonalEdgeStyle;rounded=0;orthogonalLoop=1;jettySize=auto;html=1;entryX=0;entryY=0.5;entryDx=0;entryDy=0;" edge="1" parent="1" source="fVOtU-Zu3EkFVPgkVwaM-6" target="fVOtU-Zu3EkFVPgkVwaM-8">
          <mxGeometry relative="1" as="geometry">
            <Array as="points">
              <mxPoint x="209" y="70" />
              <mxPoint x="209" y="71" />
            </Array>
          </mxGeometry>
        </mxCell>
        <mxCell id="fVOtU-Zu3EkFVPgkVwaM-6" value="Pilih Cabang" style="rhombus;whiteSpace=wrap;html=1;" vertex="1" parent="1">
          <mxGeometry x="119" y="68" width="70" height="72" as="geometry" />
        </mxCell>
        <mxCell id="fVOtU-Zu3EkFVPgkVwaM-61" style="edgeStyle=orthogonalEdgeStyle;rounded=0;orthogonalLoop=1;jettySize=auto;html=1;" edge="1" parent="1" source="fVOtU-Zu3EkFVPgkVwaM-8" target="fVOtU-Zu3EkFVPgkVwaM-13">
          <mxGeometry relative="1" as="geometry">
            <Array as="points">
              <mxPoint x="310" y="71" />
              <mxPoint x="310" y="270" />
            </Array>
          </mxGeometry>
        </mxCell>
        <mxCell id="fVOtU-Zu3EkFVPgkVwaM-63" style="edgeStyle=orthogonalEdgeStyle;rounded=0;orthogonalLoop=1;jettySize=auto;html=1;" edge="1" parent="1" source="fVOtU-Zu3EkFVPgkVwaM-8" target="fVOtU-Zu3EkFVPgkVwaM-17">
          <mxGeometry relative="1" as="geometry">
            <Array as="points">
              <mxPoint x="310" y="71" />
              <mxPoint x="310" y="140" />
            </Array>
          </mxGeometry>
        </mxCell>
        <mxCell id="fVOtU-Zu3EkFVPgkVwaM-8" value="Bojong" style="shape=parallelogram;perimeter=parallelogramPerimeter;whiteSpace=wrap;html=1;fixedSize=1;" vertex="1" parent="1">
          <mxGeometry x="206" y="56" width="90" height="30" as="geometry" />
        </mxCell>
        <mxCell id="fVOtU-Zu3EkFVPgkVwaM-9" style="edgeStyle=orthogonalEdgeStyle;rounded=0;orthogonalLoop=1;jettySize=auto;html=1;entryX=0;entryY=0.5;entryDx=0;entryDy=0;" edge="1" parent="1" target="fVOtU-Zu3EkFVPgkVwaM-6">
          <mxGeometry relative="1" as="geometry">
            <mxPoint x="89" y="103" as="sourcePoint" />
          </mxGeometry>
        </mxCell>
        <mxCell id="fVOtU-Zu3EkFVPgkVwaM-85" style="edgeStyle=orthogonalEdgeStyle;rounded=0;orthogonalLoop=1;jettySize=auto;html=1;" edge="1" parent="1" source="fVOtU-Zu3EkFVPgkVwaM-13" target="fVOtU-Zu3EkFVPgkVwaM-19">
          <mxGeometry relative="1" as="geometry" />
        </mxCell>
        <mxCell id="fVOtU-Zu3EkFVPgkVwaM-13" value="Cloud" style="ellipse;shape=cloud;whiteSpace=wrap;html=1;" vertex="1" parent="1">
          <mxGeometry x="333.5" y="250" width="60" height="40" as="geometry" />
        </mxCell>
        <mxCell id="fVOtU-Zu3EkFVPgkVwaM-59" style="edgeStyle=orthogonalEdgeStyle;rounded=0;orthogonalLoop=1;jettySize=auto;html=1;entryX=0;entryY=0.5;entryDx=0;entryDy=0;" edge="1" parent="1" source="fVOtU-Zu3EkFVPgkVwaM-17" target="fVOtU-Zu3EkFVPgkVwaM-47">
          <mxGeometry relative="1" as="geometry">
            <mxPoint x="356" y="110" as="sourcePoint" />
            <mxPoint x="413.5" y="63.5" as="targetPoint" />
            <Array as="points">
              <mxPoint x="360" y="76" />
            </Array>
          </mxGeometry>
        </mxCell>
        <mxCell id="fVOtU-Zu3EkFVPgkVwaM-102" style="edgeStyle=orthogonalEdgeStyle;rounded=0;orthogonalLoop=1;jettySize=auto;html=1;entryX=0;entryY=0.5;entryDx=0;entryDy=0;" edge="1" parent="1" source="fVOtU-Zu3EkFVPgkVwaM-17" target="fVOtU-Zu3EkFVPgkVwaM-69">
          <mxGeometry relative="1" as="geometry">
            <Array as="points">
              <mxPoint x="410" y="140" />
              <mxPoint x="410" y="140" />
            </Array>
          </mxGeometry>
        </mxCell>
        <mxCell id="fVOtU-Zu3EkFVPgkVwaM-103" style="edgeStyle=orthogonalEdgeStyle;rounded=0;orthogonalLoop=1;jettySize=auto;html=1;entryX=0;entryY=0.5;entryDx=0;entryDy=0;" edge="1" parent="1" source="fVOtU-Zu3EkFVPgkVwaM-17" target="fVOtU-Zu3EkFVPgkVwaM-67">
          <mxGeometry relative="1" as="geometry">
            <Array as="points">
              <mxPoint x="360" y="204" />
              <mxPoint x="429" y="204" />
            </Array>
          </mxGeometry>
        </mxCell>
        <mxCell id="fVOtU-Zu3EkFVPgkVwaM-17" value="Menu" style="rhombus;whiteSpace=wrap;html=1;" vertex="1" parent="1">
          <mxGeometry x="329" y="110" width="60" height="60" as="geometry" />
        </mxCell>
        <mxCell id="fVOtU-Zu3EkFVPgkVwaM-97" style="edgeStyle=orthogonalEdgeStyle;rounded=0;orthogonalLoop=1;jettySize=auto;html=1;" edge="1" parent="1" source="fVOtU-Zu3EkFVPgkVwaM-19" target="fVOtU-Zu3EkFVPgkVwaM-32">
          <mxGeometry relative="1" as="geometry">
            <Array as="points">
              <mxPoint x="600" y="270" />
              <mxPoint x="600" y="156" />
            </Array>
          </mxGeometry>
        </mxCell>
        <mxCell id="fVOtU-Zu3EkFVPgkVwaM-19" value="Show Broadcast&amp;nbsp; Msg" style="shape=parallelogram;perimeter=parallelogramPerimeter;whiteSpace=wrap;html=1;fixedSize=1;" vertex="1" parent="1">
          <mxGeometry x="424.5" y="255" width="151" height="30" as="geometry" />
        </mxCell>
        <mxCell id="fVOtU-Zu3EkFVPgkVwaM-144" style="edgeStyle=orthogonalEdgeStyle;rounded=0;orthogonalLoop=1;jettySize=auto;html=1;" edge="1" parent="1" source="fVOtU-Zu3EkFVPgkVwaM-23" target="fVOtU-Zu3EkFVPgkVwaM-139">
          <mxGeometry relative="1" as="geometry" />
        </mxCell>
        <mxCell id="fVOtU-Zu3EkFVPgkVwaM-23" value="Cloud" style="ellipse;shape=cloud;whiteSpace=wrap;html=1;" vertex="1" parent="1">
          <mxGeometry x="282.5" y="920" width="60" height="40" as="geometry" />
        </mxCell>
        <mxCell id="fVOtU-Zu3EkFVPgkVwaM-121" style="edgeStyle=orthogonalEdgeStyle;rounded=0;orthogonalLoop=1;jettySize=auto;html=1;" edge="1" parent="1" source="fVOtU-Zu3EkFVPgkVwaM-25" target="fVOtU-Zu3EkFVPgkVwaM-119">
          <mxGeometry relative="1" as="geometry" />
        </mxCell>
        <mxCell id="fVOtU-Zu3EkFVPgkVwaM-25" value="MySQL" style="shape=cylinder3;whiteSpace=wrap;html=1;boundedLbl=1;backgroundOutline=1;size=15;" vertex="1" parent="1">
          <mxGeometry x="288.5" y="730" width="45" height="60" as="geometry" />
        </mxCell>
        <mxCell id="fVOtU-Zu3EkFVPgkVwaM-54" style="edgeStyle=orthogonalEdgeStyle;rounded=0;orthogonalLoop=1;jettySize=auto;html=1;" edge="1" parent="1" source="fVOtU-Zu3EkFVPgkVwaM-27" target="fVOtU-Zu3EkFVPgkVwaM-48">
          <mxGeometry relative="1" as="geometry" />
        </mxCell>
        <mxCell id="fVOtU-Zu3EkFVPgkVwaM-55" style="edgeStyle=orthogonalEdgeStyle;rounded=0;orthogonalLoop=1;jettySize=auto;html=1;entryX=0;entryY=0.5;entryDx=0;entryDy=0;" edge="1" parent="1" source="fVOtU-Zu3EkFVPgkVwaM-27" target="fVOtU-Zu3EkFVPgkVwaM-51">
          <mxGeometry relative="1" as="geometry">
            <Array as="points">
              <mxPoint x="380" y="390" />
              <mxPoint x="380" y="490" />
            </Array>
          </mxGeometry>
        </mxCell>
        <mxCell id="fVOtU-Zu3EkFVPgkVwaM-56" style="edgeStyle=orthogonalEdgeStyle;rounded=0;orthogonalLoop=1;jettySize=auto;html=1;entryX=0;entryY=0.5;entryDx=0;entryDy=0;" edge="1" parent="1" source="fVOtU-Zu3EkFVPgkVwaM-27" target="fVOtU-Zu3EkFVPgkVwaM-49">
          <mxGeometry relative="1" as="geometry">
            <Array as="points">
              <mxPoint x="380" y="390" />
              <mxPoint x="380" y="580" />
            </Array>
          </mxGeometry>
        </mxCell>
        <mxCell id="fVOtU-Zu3EkFVPgkVwaM-57" style="edgeStyle=orthogonalEdgeStyle;rounded=0;orthogonalLoop=1;jettySize=auto;html=1;entryX=0;entryY=0.5;entryDx=0;entryDy=0;" edge="1" parent="1" source="fVOtU-Zu3EkFVPgkVwaM-27">
          <mxGeometry relative="1" as="geometry">
            <mxPoint x="351.97445721583654" y="393.0344827586208" as="sourcePoint" />
            <mxPoint x="434" y="650" as="targetPoint" />
            <Array as="points">
              <mxPoint x="380" y="390" />
              <mxPoint x="380" y="650" />
            </Array>
          </mxGeometry>
        </mxCell>
        <mxCell id="fVOtU-Zu3EkFVPgkVwaM-27" value="Input data" style="shape=parallelogram;perimeter=parallelogramPerimeter;whiteSpace=wrap;html=1;fixedSize=1;" vertex="1" parent="1">
          <mxGeometry x="262" y="376.5" width="100" height="27" as="geometry" />
        </mxCell>
        <mxCell id="fVOtU-Zu3EkFVPgkVwaM-30" style="edgeStyle=orthogonalEdgeStyle;rounded=0;orthogonalLoop=1;jettySize=auto;html=1;" edge="1" parent="1" source="fVOtU-Zu3EkFVPgkVwaM-32" target="fVOtU-Zu3EkFVPgkVwaM-33">
          <mxGeometry relative="1" as="geometry">
            <Array as="points">
              <mxPoint x="685" y="258.5" />
              <mxPoint x="685" y="258.5" />
            </Array>
          </mxGeometry>
        </mxCell>
        <mxCell id="fVOtU-Zu3EkFVPgkVwaM-31" style="edgeStyle=orthogonalEdgeStyle;rounded=0;orthogonalLoop=1;jettySize=auto;html=1;" edge="1" parent="1" source="fVOtU-Zu3EkFVPgkVwaM-32" target="fVOtU-Zu3EkFVPgkVwaM-34">
          <mxGeometry relative="1" as="geometry" />
        </mxCell>
        <mxCell id="fVOtU-Zu3EkFVPgkVwaM-32" value="Continue?" style="rhombus;whiteSpace=wrap;html=1;" vertex="1" parent="1">
          <mxGeometry x="650" y="123.5" width="70" height="65" as="geometry" />
        </mxCell>
        <mxCell id="fVOtU-Zu3EkFVPgkVwaM-33" value="&lt;b&gt;&lt;font style=&quot;font-size: 15px;&quot;&gt;End&lt;/font&gt;&lt;/b&gt;" style="ellipse;whiteSpace=wrap;html=1;" vertex="1" parent="1">
          <mxGeometry x="650" y="218.5" width="70" height="40" as="geometry" />
        </mxCell>
        <mxCell id="fVOtU-Zu3EkFVPgkVwaM-34" value="&lt;font style=&quot;font-size: 17px;&quot;&gt;&lt;b&gt;A&lt;/b&gt;&lt;/font&gt;" style="ellipse;whiteSpace=wrap;html=1;aspect=fixed;" vertex="1" parent="1">
          <mxGeometry x="665" y="51.5" width="40" height="40" as="geometry" />
        </mxCell>
        <mxCell id="fVOtU-Zu3EkFVPgkVwaM-65" style="edgeStyle=orthogonalEdgeStyle;rounded=0;orthogonalLoop=1;jettySize=auto;html=1;" edge="1" parent="1" source="fVOtU-Zu3EkFVPgkVwaM-36" target="fVOtU-Zu3EkFVPgkVwaM-17">
          <mxGeometry relative="1" as="geometry">
            <Array as="points">
              <mxPoint x="310" y="210" />
              <mxPoint x="310" y="140" />
            </Array>
          </mxGeometry>
        </mxCell>
        <mxCell id="fVOtU-Zu3EkFVPgkVwaM-66" style="edgeStyle=orthogonalEdgeStyle;rounded=0;orthogonalLoop=1;jettySize=auto;html=1;" edge="1" parent="1" source="fVOtU-Zu3EkFVPgkVwaM-36" target="fVOtU-Zu3EkFVPgkVwaM-13">
          <mxGeometry relative="1" as="geometry">
            <Array as="points">
              <mxPoint x="310" y="210" />
              <mxPoint x="310" y="270" />
            </Array>
          </mxGeometry>
        </mxCell>
        <mxCell id="fVOtU-Zu3EkFVPgkVwaM-36" value="&lt;font style=&quot;font-size: 17px;&quot;&gt;&lt;b&gt;A&lt;/b&gt;&lt;/font&gt;" style="ellipse;whiteSpace=wrap;html=1;aspect=fixed;" vertex="1" parent="1">
          <mxGeometry x="231" y="190" width="40" height="40" as="geometry" />
        </mxCell>
        <mxCell id="fVOtU-Zu3EkFVPgkVwaM-37" value="&lt;b&gt;1&lt;/b&gt;" style="text;html=1;strokeColor=none;fillColor=none;align=center;verticalAlign=middle;whiteSpace=wrap;rounded=0;" vertex="1" parent="1">
          <mxGeometry x="174" y="43" width="32" height="30" as="geometry" />
        </mxCell>
        <mxCell id="fVOtU-Zu3EkFVPgkVwaM-38" value="&lt;b&gt;2&lt;/b&gt;" style="text;html=1;strokeColor=none;fillColor=none;align=center;verticalAlign=middle;whiteSpace=wrap;rounded=0;" vertex="1" parent="1">
          <mxGeometry x="174" y="108" width="32" height="30" as="geometry" />
        </mxCell>
        <mxCell id="fVOtU-Zu3EkFVPgkVwaM-39" value="&lt;b&gt;1&lt;/b&gt;" style="text;html=1;strokeColor=none;fillColor=none;align=center;verticalAlign=middle;whiteSpace=wrap;rounded=0;" vertex="1" parent="1">
          <mxGeometry x="387.5" y="45.5" width="32" height="30" as="geometry" />
        </mxCell>
        <mxCell id="fVOtU-Zu3EkFVPgkVwaM-40" value="&lt;b&gt;2&lt;/b&gt;" style="text;html=1;strokeColor=none;fillColor=none;align=center;verticalAlign=middle;whiteSpace=wrap;rounded=0;" vertex="1" parent="1">
          <mxGeometry x="388" y="110" width="32" height="30" as="geometry" />
        </mxCell>
        <mxCell id="fVOtU-Zu3EkFVPgkVwaM-41" value="&lt;b&gt;3&lt;/b&gt;" style="text;html=1;strokeColor=none;fillColor=none;align=center;verticalAlign=middle;whiteSpace=wrap;rounded=0;" vertex="1" parent="1">
          <mxGeometry x="388" y="173" width="32" height="30" as="geometry" />
        </mxCell>
        <mxCell id="fVOtU-Zu3EkFVPgkVwaM-43" value="&lt;b&gt;Y&lt;/b&gt;" style="text;html=1;strokeColor=none;fillColor=none;align=center;verticalAlign=middle;whiteSpace=wrap;rounded=0;" vertex="1" parent="1">
          <mxGeometry x="688" y="98.5" width="32" height="30" as="geometry" />
        </mxCell>
        <mxCell id="fVOtU-Zu3EkFVPgkVwaM-44" value="&lt;b&gt;N&lt;/b&gt;" style="text;html=1;strokeColor=none;fillColor=none;align=center;verticalAlign=middle;whiteSpace=wrap;rounded=0;" vertex="1" parent="1">
          <mxGeometry x="688" y="188.5" width="32" height="30" as="geometry" />
        </mxCell>
        <mxCell id="fVOtU-Zu3EkFVPgkVwaM-79" style="edgeStyle=orthogonalEdgeStyle;rounded=0;orthogonalLoop=1;jettySize=auto;html=1;" edge="1" parent="1" source="fVOtU-Zu3EkFVPgkVwaM-46" target="fVOtU-Zu3EkFVPgkVwaM-77">
          <mxGeometry relative="1" as="geometry" />
        </mxCell>
        <mxCell id="fVOtU-Zu3EkFVPgkVwaM-46" value="&lt;font style=&quot;font-size: 17px;&quot;&gt;&lt;b&gt;A1&lt;/b&gt;&lt;/font&gt;" style="shape=offPageConnector;whiteSpace=wrap;html=1;" vertex="1" parent="1">
          <mxGeometry x="30" y="370" width="40" height="40" as="geometry" />
        </mxCell>
        <mxCell id="fVOtU-Zu3EkFVPgkVwaM-47" value="&lt;font style=&quot;font-size: 17px;&quot;&gt;&lt;b&gt;A1&lt;/b&gt;&lt;/font&gt;" style="shape=offPageConnector;whiteSpace=wrap;html=1;" vertex="1" parent="1">
          <mxGeometry x="429" y="56" width="40" height="40" as="geometry" />
        </mxCell>
        <mxCell id="fVOtU-Zu3EkFVPgkVwaM-73" style="edgeStyle=orthogonalEdgeStyle;rounded=0;orthogonalLoop=1;jettySize=auto;html=1;" edge="1" parent="1" source="fVOtU-Zu3EkFVPgkVwaM-48" target="fVOtU-Zu3EkFVPgkVwaM-72">
          <mxGeometry relative="1" as="geometry" />
        </mxCell>
        <mxCell id="fVOtU-Zu3EkFVPgkVwaM-48" value="length&amp;nbsp;&amp;lt; 20" style="rhombus;whiteSpace=wrap;html=1;" vertex="1" parent="1">
          <mxGeometry x="431" y="360" width="96" height="60" as="geometry" />
        </mxCell>
        <mxCell id="fVOtU-Zu3EkFVPgkVwaM-75" style="edgeStyle=orthogonalEdgeStyle;rounded=0;orthogonalLoop=1;jettySize=auto;html=1;" edge="1" parent="1" source="fVOtU-Zu3EkFVPgkVwaM-49" target="fVOtU-Zu3EkFVPgkVwaM-72">
          <mxGeometry relative="1" as="geometry">
            <Array as="points">
              <mxPoint x="550" y="580" />
              <mxPoint x="550" y="390" />
            </Array>
          </mxGeometry>
        </mxCell>
        <mxCell id="fVOtU-Zu3EkFVPgkVwaM-49" value="Calculate Date" style="rounded=0;whiteSpace=wrap;html=1;" vertex="1" parent="1">
          <mxGeometry x="434" y="560" width="92" height="40" as="geometry" />
        </mxCell>
        <mxCell id="fVOtU-Zu3EkFVPgkVwaM-76" style="edgeStyle=orthogonalEdgeStyle;rounded=0;orthogonalLoop=1;jettySize=auto;html=1;" edge="1" parent="1" source="fVOtU-Zu3EkFVPgkVwaM-50" target="fVOtU-Zu3EkFVPgkVwaM-72">
          <mxGeometry relative="1" as="geometry">
            <Array as="points">
              <mxPoint x="550" y="647" />
              <mxPoint x="550" y="390" />
            </Array>
          </mxGeometry>
        </mxCell>
        <mxCell id="fVOtU-Zu3EkFVPgkVwaM-50" value="Calculate Cost" style="rounded=0;whiteSpace=wrap;html=1;" vertex="1" parent="1">
          <mxGeometry x="434" y="627" width="92" height="40" as="geometry" />
        </mxCell>
        <mxCell id="fVOtU-Zu3EkFVPgkVwaM-74" style="edgeStyle=orthogonalEdgeStyle;rounded=0;orthogonalLoop=1;jettySize=auto;html=1;" edge="1" parent="1" source="fVOtU-Zu3EkFVPgkVwaM-51" target="fVOtU-Zu3EkFVPgkVwaM-72">
          <mxGeometry relative="1" as="geometry">
            <Array as="points">
              <mxPoint x="550" y="490" />
              <mxPoint x="550" y="390" />
            </Array>
          </mxGeometry>
        </mxCell>
        <mxCell id="fVOtU-Zu3EkFVPgkVwaM-51" value="Is it number" style="rhombus;whiteSpace=wrap;html=1;" vertex="1" parent="1">
          <mxGeometry x="431" y="460" width="96" height="60" as="geometry" />
        </mxCell>
        <mxCell id="fVOtU-Zu3EkFVPgkVwaM-52" style="edgeStyle=orthogonalEdgeStyle;rounded=0;orthogonalLoop=1;jettySize=auto;html=1;entryX=0;entryY=0.5;entryDx=0;entryDy=0;exitX=0.5;exitY=1;exitDx=0;exitDy=0;strokeWidth=2;" edge="1" parent="1">
          <mxGeometry relative="1" as="geometry">
            <mxPoint x="480.0000000000001" y="520" as="sourcePoint" />
            <mxPoint x="432" y="490" as="targetPoint" />
            <Array as="points">
              <mxPoint x="479" y="540" />
              <mxPoint x="401" y="540" />
              <mxPoint x="401" y="490" />
            </Array>
          </mxGeometry>
        </mxCell>
        <mxCell id="fVOtU-Zu3EkFVPgkVwaM-53" style="edgeStyle=orthogonalEdgeStyle;rounded=0;orthogonalLoop=1;jettySize=auto;html=1;entryX=0;entryY=0.5;entryDx=0;entryDy=0;exitX=0.5;exitY=1;exitDx=0;exitDy=0;strokeWidth=2;" edge="1" parent="1">
          <mxGeometry relative="1" as="geometry">
            <mxPoint x="480.0000000000001" y="420" as="sourcePoint" />
            <mxPoint x="432" y="390" as="targetPoint" />
            <Array as="points">
              <mxPoint x="479" y="440" />
              <mxPoint x="401" y="440" />
              <mxPoint x="401" y="390" />
            </Array>
          </mxGeometry>
        </mxCell>
        <mxCell id="fVOtU-Zu3EkFVPgkVwaM-93" style="edgeStyle=orthogonalEdgeStyle;rounded=0;orthogonalLoop=1;jettySize=auto;html=1;entryX=0;entryY=0.5;entryDx=0;entryDy=0;" edge="1" parent="1" source="fVOtU-Zu3EkFVPgkVwaM-60" target="fVOtU-Zu3EkFVPgkVwaM-32">
          <mxGeometry relative="1" as="geometry">
            <Array as="points">
              <mxPoint x="600" y="76" />
              <mxPoint x="600" y="156" />
            </Array>
          </mxGeometry>
        </mxCell>
        <mxCell id="fVOtU-Zu3EkFVPgkVwaM-60" value="&lt;font style=&quot;font-size: 17px;&quot;&gt;&lt;b&gt;A2&lt;/b&gt;&lt;/font&gt;" style="shape=offPageConnector;whiteSpace=wrap;html=1;" vertex="1" parent="1">
          <mxGeometry x="489" y="56" width="40" height="40" as="geometry" />
        </mxCell>
        <mxCell id="fVOtU-Zu3EkFVPgkVwaM-67" value="&lt;font style=&quot;font-size: 17px;&quot;&gt;&lt;b&gt;C1&lt;/b&gt;&lt;/font&gt;" style="shape=offPageConnector;whiteSpace=wrap;html=1;" vertex="1" parent="1">
          <mxGeometry x="429" y="183.5" width="40" height="40" as="geometry" />
        </mxCell>
        <mxCell id="fVOtU-Zu3EkFVPgkVwaM-95" style="edgeStyle=orthogonalEdgeStyle;rounded=0;orthogonalLoop=1;jettySize=auto;html=1;" edge="1" parent="1" source="fVOtU-Zu3EkFVPgkVwaM-68" target="fVOtU-Zu3EkFVPgkVwaM-32">
          <mxGeometry relative="1" as="geometry">
            <Array as="points">
              <mxPoint x="600" y="200" />
              <mxPoint x="600" y="156" />
            </Array>
          </mxGeometry>
        </mxCell>
        <mxCell id="fVOtU-Zu3EkFVPgkVwaM-68" value="&lt;font style=&quot;font-size: 17px;&quot;&gt;&lt;b&gt;C2&lt;/b&gt;&lt;/font&gt;" style="shape=offPageConnector;whiteSpace=wrap;html=1;" vertex="1" parent="1">
          <mxGeometry x="489" y="183.5" width="40" height="40" as="geometry" />
        </mxCell>
        <mxCell id="fVOtU-Zu3EkFVPgkVwaM-69" value="&lt;span style=&quot;font-size: 17px;&quot;&gt;&lt;b&gt;B1&lt;/b&gt;&lt;/span&gt;" style="shape=offPageConnector;whiteSpace=wrap;html=1;" vertex="1" parent="1">
          <mxGeometry x="429" y="120" width="40" height="40" as="geometry" />
        </mxCell>
        <mxCell id="fVOtU-Zu3EkFVPgkVwaM-94" style="edgeStyle=orthogonalEdgeStyle;rounded=0;orthogonalLoop=1;jettySize=auto;html=1;" edge="1" parent="1" source="fVOtU-Zu3EkFVPgkVwaM-70" target="fVOtU-Zu3EkFVPgkVwaM-32">
          <mxGeometry relative="1" as="geometry">
            <Array as="points">
              <mxPoint x="600" y="140" />
              <mxPoint x="600" y="156" />
            </Array>
          </mxGeometry>
        </mxCell>
        <mxCell id="fVOtU-Zu3EkFVPgkVwaM-70" value="&lt;span style=&quot;font-size: 17px;&quot;&gt;&lt;b&gt;B2&lt;/b&gt;&lt;/span&gt;" style="shape=offPageConnector;whiteSpace=wrap;html=1;" vertex="1" parent="1">
          <mxGeometry x="489" y="120" width="40" height="40" as="geometry" />
        </mxCell>
        <mxCell id="fVOtU-Zu3EkFVPgkVwaM-100" style="edgeStyle=orthogonalEdgeStyle;rounded=0;orthogonalLoop=1;jettySize=auto;html=1;" edge="1" parent="1" source="fVOtU-Zu3EkFVPgkVwaM-72" target="fVOtU-Zu3EkFVPgkVwaM-99">
          <mxGeometry relative="1" as="geometry" />
        </mxCell>
        <mxCell id="fVOtU-Zu3EkFVPgkVwaM-72" value="Cloud" style="ellipse;shape=cloud;whiteSpace=wrap;html=1;" vertex="1" parent="1">
          <mxGeometry x="570" y="370" width="60" height="40" as="geometry" />
        </mxCell>
        <mxCell id="fVOtU-Zu3EkFVPgkVwaM-78" style="edgeStyle=orthogonalEdgeStyle;rounded=0;orthogonalLoop=1;jettySize=auto;html=1;" edge="1" parent="1" source="fVOtU-Zu3EkFVPgkVwaM-77" target="fVOtU-Zu3EkFVPgkVwaM-27">
          <mxGeometry relative="1" as="geometry" />
        </mxCell>
        <mxCell id="fVOtU-Zu3EkFVPgkVwaM-81" style="edgeStyle=orthogonalEdgeStyle;rounded=0;orthogonalLoop=1;jettySize=auto;html=1;entryX=0;entryY=0.5;entryDx=0;entryDy=0;" edge="1" parent="1" source="fVOtU-Zu3EkFVPgkVwaM-77" target="fVOtU-Zu3EkFVPgkVwaM-80">
          <mxGeometry relative="1" as="geometry">
            <Array as="points">
              <mxPoint x="170" y="485" />
            </Array>
          </mxGeometry>
        </mxCell>
        <mxCell id="fVOtU-Zu3EkFVPgkVwaM-77" value="ID Previous&lt;br&gt;is null?" style="rhombus;whiteSpace=wrap;html=1;" vertex="1" parent="1">
          <mxGeometry x="110" y="360" width="120" height="60" as="geometry" />
        </mxCell>
        <mxCell id="fVOtU-Zu3EkFVPgkVwaM-82" style="edgeStyle=orthogonalEdgeStyle;rounded=0;orthogonalLoop=1;jettySize=auto;html=1;entryX=0.5;entryY=1;entryDx=0;entryDy=0;" edge="1" parent="1" source="fVOtU-Zu3EkFVPgkVwaM-80" target="fVOtU-Zu3EkFVPgkVwaM-27">
          <mxGeometry relative="1" as="geometry">
            <Array as="points">
              <mxPoint x="312" y="450" />
              <mxPoint x="312" y="450" />
            </Array>
          </mxGeometry>
        </mxCell>
        <mxCell id="fVOtU-Zu3EkFVPgkVwaM-80" value="GenerateNew ID" style="rounded=0;whiteSpace=wrap;html=1;" vertex="1" parent="1">
          <mxGeometry x="248" y="470" width="110" height="30" as="geometry" />
        </mxCell>
        <mxCell id="fVOtU-Zu3EkFVPgkVwaM-120" style="edgeStyle=orthogonalEdgeStyle;rounded=0;orthogonalLoop=1;jettySize=auto;html=1;" edge="1" parent="1" source="fVOtU-Zu3EkFVPgkVwaM-83" target="fVOtU-Zu3EkFVPgkVwaM-25">
          <mxGeometry relative="1" as="geometry" />
        </mxCell>
        <mxCell id="fVOtU-Zu3EkFVPgkVwaM-123" style="edgeStyle=orthogonalEdgeStyle;rounded=0;orthogonalLoop=1;jettySize=auto;html=1;" edge="1" parent="1" source="fVOtU-Zu3EkFVPgkVwaM-83" target="fVOtU-Zu3EkFVPgkVwaM-122">
          <mxGeometry relative="1" as="geometry" />
        </mxCell>
        <mxCell id="fVOtU-Zu3EkFVPgkVwaM-83" value="Use other &lt;br&gt;ID?" style="rhombus;whiteSpace=wrap;html=1;" vertex="1" parent="1">
          <mxGeometry x="123" y="730" width="110" height="60" as="geometry" />
        </mxCell>
        <mxCell id="fVOtU-Zu3EkFVPgkVwaM-99" value="&lt;font style=&quot;font-size: 17px;&quot;&gt;&lt;b&gt;A2&lt;/b&gt;&lt;/font&gt;" style="shape=offPageConnector;whiteSpace=wrap;html=1;" vertex="1" parent="1">
          <mxGeometry x="658" y="370" width="40" height="40" as="geometry" />
        </mxCell>
        <mxCell id="fVOtU-Zu3EkFVPgkVwaM-105" value="&lt;b&gt;Y&lt;/b&gt;" style="text;html=1;strokeColor=none;fillColor=none;align=center;verticalAlign=middle;whiteSpace=wrap;rounded=0;" vertex="1" parent="1">
          <mxGeometry x="520" y="460" width="32" height="30" as="geometry" />
        </mxCell>
        <mxCell id="fVOtU-Zu3EkFVPgkVwaM-106" value="&lt;b&gt;N&lt;/b&gt;" style="text;html=1;strokeColor=none;fillColor=none;align=center;verticalAlign=middle;whiteSpace=wrap;rounded=0;" vertex="1" parent="1">
          <mxGeometry x="478.5" y="510" width="32" height="30" as="geometry" />
        </mxCell>
        <mxCell id="fVOtU-Zu3EkFVPgkVwaM-110" value="&lt;b&gt;Y&lt;/b&gt;" style="text;html=1;strokeColor=none;fillColor=none;align=center;verticalAlign=middle;whiteSpace=wrap;rounded=0;" vertex="1" parent="1">
          <mxGeometry x="520" y="360" width="32" height="30" as="geometry" />
        </mxCell>
        <mxCell id="fVOtU-Zu3EkFVPgkVwaM-111" value="&lt;b&gt;N&lt;/b&gt;" style="text;html=1;strokeColor=none;fillColor=none;align=center;verticalAlign=middle;whiteSpace=wrap;rounded=0;" vertex="1" parent="1">
          <mxGeometry x="478.5" y="410" width="32" height="30" as="geometry" />
        </mxCell>
        <mxCell id="fVOtU-Zu3EkFVPgkVwaM-112" value="&lt;b&gt;Y&lt;/b&gt;" style="text;html=1;strokeColor=none;fillColor=none;align=center;verticalAlign=middle;whiteSpace=wrap;rounded=0;" vertex="1" parent="1">
          <mxGeometry x="232.5" y="730" width="32" height="30" as="geometry" />
        </mxCell>
        <mxCell id="fVOtU-Zu3EkFVPgkVwaM-113" value="&lt;b&gt;N&lt;/b&gt;" style="text;html=1;strokeColor=none;fillColor=none;align=center;verticalAlign=middle;whiteSpace=wrap;rounded=0;" vertex="1" parent="1">
          <mxGeometry x="177" y="790" width="32" height="30" as="geometry" />
        </mxCell>
        <mxCell id="fVOtU-Zu3EkFVPgkVwaM-114" value="&lt;b&gt;Y&lt;/b&gt;" style="text;html=1;strokeColor=none;fillColor=none;align=center;verticalAlign=middle;whiteSpace=wrap;rounded=0;" vertex="1" parent="1">
          <mxGeometry x="230" y="360" width="32" height="30" as="geometry" />
        </mxCell>
        <mxCell id="fVOtU-Zu3EkFVPgkVwaM-115" value="&lt;b&gt;N&lt;/b&gt;" style="text;html=1;strokeColor=none;fillColor=none;align=center;verticalAlign=middle;whiteSpace=wrap;rounded=0;" vertex="1" parent="1">
          <mxGeometry x="169" y="420" width="32" height="30" as="geometry" />
        </mxCell>
        <mxCell id="fVOtU-Zu3EkFVPgkVwaM-118" style="edgeStyle=orthogonalEdgeStyle;rounded=0;orthogonalLoop=1;jettySize=auto;html=1;" edge="1" parent="1" source="fVOtU-Zu3EkFVPgkVwaM-116" target="fVOtU-Zu3EkFVPgkVwaM-83">
          <mxGeometry relative="1" as="geometry" />
        </mxCell>
        <mxCell id="fVOtU-Zu3EkFVPgkVwaM-116" value="&lt;span style=&quot;font-size: 17px;&quot;&gt;&lt;b&gt;B1&lt;/b&gt;&lt;/span&gt;" style="shape=offPageConnector;whiteSpace=wrap;html=1;" vertex="1" parent="1">
          <mxGeometry x="40" y="740" width="40" height="40" as="geometry" />
        </mxCell>
        <mxCell id="fVOtU-Zu3EkFVPgkVwaM-117" value="&lt;span style=&quot;font-size: 17px;&quot;&gt;&lt;b&gt;B2&lt;/b&gt;&lt;/span&gt;" style="shape=offPageConnector;whiteSpace=wrap;html=1;" vertex="1" parent="1">
          <mxGeometry x="558" y="740" width="40" height="40" as="geometry" />
        </mxCell>
        <mxCell id="fVOtU-Zu3EkFVPgkVwaM-125" style="edgeStyle=orthogonalEdgeStyle;rounded=0;orthogonalLoop=1;jettySize=auto;html=1;" edge="1" parent="1" source="fVOtU-Zu3EkFVPgkVwaM-119" target="fVOtU-Zu3EkFVPgkVwaM-117">
          <mxGeometry relative="1" as="geometry" />
        </mxCell>
        <mxCell id="fVOtU-Zu3EkFVPgkVwaM-119" value="Show data" style="shape=parallelogram;perimeter=parallelogramPerimeter;whiteSpace=wrap;html=1;fixedSize=1;" vertex="1" parent="1">
          <mxGeometry x="383.5" y="740" width="95" height="40" as="geometry" />
        </mxCell>
        <mxCell id="fVOtU-Zu3EkFVPgkVwaM-124" style="edgeStyle=orthogonalEdgeStyle;rounded=0;orthogonalLoop=1;jettySize=auto;html=1;" edge="1" parent="1" source="fVOtU-Zu3EkFVPgkVwaM-122" target="fVOtU-Zu3EkFVPgkVwaM-25">
          <mxGeometry relative="1" as="geometry" />
        </mxCell>
        <mxCell id="fVOtU-Zu3EkFVPgkVwaM-122" value="Input Id" style="shape=parallelogram;perimeter=parallelogramPerimeter;whiteSpace=wrap;html=1;fixedSize=1;" vertex="1" parent="1">
          <mxGeometry x="140.5" y="840" width="75" height="25" as="geometry" />
        </mxCell>
        <mxCell id="fVOtU-Zu3EkFVPgkVwaM-132" style="edgeStyle=orthogonalEdgeStyle;rounded=0;orthogonalLoop=1;jettySize=auto;html=1;" edge="1" parent="1" source="fVOtU-Zu3EkFVPgkVwaM-134" target="fVOtU-Zu3EkFVPgkVwaM-23">
          <mxGeometry relative="1" as="geometry">
            <mxPoint x="279.5" y="940" as="targetPoint" />
          </mxGeometry>
        </mxCell>
        <mxCell id="fVOtU-Zu3EkFVPgkVwaM-133" style="edgeStyle=orthogonalEdgeStyle;rounded=0;orthogonalLoop=1;jettySize=auto;html=1;" edge="1" parent="1" source="fVOtU-Zu3EkFVPgkVwaM-134" target="fVOtU-Zu3EkFVPgkVwaM-143">
          <mxGeometry relative="1" as="geometry" />
        </mxCell>
        <mxCell id="fVOtU-Zu3EkFVPgkVwaM-134" value="Use other &lt;br&gt;ID?" style="rhombus;whiteSpace=wrap;html=1;" vertex="1" parent="1">
          <mxGeometry x="122.5" y="910" width="110" height="60" as="geometry" />
        </mxCell>
        <mxCell id="fVOtU-Zu3EkFVPgkVwaM-135" value="&lt;b&gt;Y&lt;/b&gt;" style="text;html=1;strokeColor=none;fillColor=none;align=center;verticalAlign=middle;whiteSpace=wrap;rounded=0;" vertex="1" parent="1">
          <mxGeometry x="232" y="910" width="32" height="30" as="geometry" />
        </mxCell>
        <mxCell id="fVOtU-Zu3EkFVPgkVwaM-136" value="&lt;b&gt;N&lt;/b&gt;" style="text;html=1;strokeColor=none;fillColor=none;align=center;verticalAlign=middle;whiteSpace=wrap;rounded=0;" vertex="1" parent="1">
          <mxGeometry x="176.5" y="970" width="32" height="30" as="geometry" />
        </mxCell>
        <mxCell id="fVOtU-Zu3EkFVPgkVwaM-137" style="edgeStyle=orthogonalEdgeStyle;rounded=0;orthogonalLoop=1;jettySize=auto;html=1;" edge="1" parent="1" source="fVOtU-Zu3EkFVPgkVwaM-138" target="fVOtU-Zu3EkFVPgkVwaM-134">
          <mxGeometry relative="1" as="geometry" />
        </mxCell>
        <mxCell id="fVOtU-Zu3EkFVPgkVwaM-138" value="&lt;span style=&quot;font-size: 17px;&quot;&gt;&lt;b&gt;C1&lt;/b&gt;&lt;/span&gt;" style="shape=offPageConnector;whiteSpace=wrap;html=1;" vertex="1" parent="1">
          <mxGeometry x="39.5" y="920" width="40" height="40" as="geometry" />
        </mxCell>
        <mxCell id="fVOtU-Zu3EkFVPgkVwaM-139" value="&lt;span style=&quot;font-size: 17px;&quot;&gt;&lt;b&gt;C2&lt;/b&gt;&lt;/span&gt;" style="shape=offPageConnector;whiteSpace=wrap;html=1;" vertex="1" parent="1">
          <mxGeometry x="400.5" y="920" width="40" height="40" as="geometry" />
        </mxCell>
        <mxCell id="fVOtU-Zu3EkFVPgkVwaM-142" style="edgeStyle=orthogonalEdgeStyle;rounded=0;orthogonalLoop=1;jettySize=auto;html=1;" edge="1" parent="1" source="fVOtU-Zu3EkFVPgkVwaM-143" target="fVOtU-Zu3EkFVPgkVwaM-23">
          <mxGeometry relative="1" as="geometry">
            <mxPoint x="310.5" y="970" as="targetPoint" />
          </mxGeometry>
        </mxCell>
        <mxCell id="fVOtU-Zu3EkFVPgkVwaM-143" value="Input Id" style="shape=parallelogram;perimeter=parallelogramPerimeter;whiteSpace=wrap;html=1;fixedSize=1;" vertex="1" parent="1">
          <mxGeometry x="140" y="1020" width="75" height="25" as="geometry" />
        </mxCell>
      </root>
    </mxGraphModel>
  </diagram>
</mxfile>
